<?xml version="1.0" encoding="UTF-8"?>
<!DOCTYPE svg PUBLIC "-//W3C//DTD SVG 1.1//EN" "http://www.w3.org/Graphics/SVG/1.1/DTD/svg11.dtd">
<!-- Creator: CorelDRAW X5 -->
<svg xmlns="http://www.w3.org/2000/svg" xml:space="preserve" width="198.967mm" height="53.34mm" style="shape-rendering:geometricPrecision; text-rendering:geometricPrecision; image-rendering:optimizeQuality; fill-rule:evenodd; clip-rule:evenodd"
viewBox="0 0 19897 5334"
 xmlns:xlink="http://www.w3.org/1999/xlink">
 <defs>
  <style type="text/css">
   <![CDATA[
    .fil0 {fill:#C9CACA}
    .fil1 {fill:#FEFEFE}
    .fil2 {fill:#FEFEFE;fill-rule:nonzero}
   ]]>
  </style>
 </defs>
 <g id="Layer_x0020_1">
  <metadata id="CorelCorpID_0Corel-Layer"/>
  <polygon class="fil0" points="18907,-12 17653,-12 17657,1550 18907,3495 "/>
  <polygon class="fil0" points="13801,985 15357,1012 14210,2867 12645,2868 "/>
  <polygon class="fil1" points="15353,965 13797,991 15623,3945 17195,3945 "/>
  <polygon class="fil1" points="17097,936 15541,962 18170,5227 19758,5230 "/>
  <path class="fil2" d="M372 2513l765 0c359,0 619,54 780,161 161,107 241,277 241,509 0,161 -45,293 -134,398 -90,104 -220,172 -392,203l0 18c411,70 617,286 617,648 0,242 -82,431 -246,567 -163,136 -392,204 -686,204l-945 0 0 -2708zm315 1160l518 0c223,0 383,-35 480,-105 97,-70 146,-187 146,-353 0,-152 -54,-261 -163,-329 -109,-67 -282,-101 -519,-101l-463 0 0 888zm0 267l0 1013 565 0c219,0 383,-42 494,-126 111,-85 166,-218 166,-398 0,-168 -56,-291 -169,-371 -113,-79 -285,-118 -516,-118l-539 0z"/>
  <path id="1" class="fil2" d="M3073 3190l0 1317c0,166 37,289 113,371 76,82 193,122 354,122 212,0 367,-58 466,-174 98,-116 147,-305 147,-568l0 -1067 307 0 0 2030 -254 0 -45 -273 -16 0c-63,101 -150,177 -262,230 -111,53 -239,80 -383,80 -247,0 -432,-59 -555,-176 -123,-117 -185,-305 -185,-563l0 -1328 312 0z"/>
  <path id="12" class="fil2" d="M5417 4181c53,-75 134,-174 243,-296l656 -695 365 0 -823 865 880 1165 -372 0 -717 -960 -231 200 0 759 -303 0 0 -2883 303 0 0 1528c0,68 -5,173 -15,315l15 0z"/>
  <path id="123" class="fil2" d="M8780 4204c0,331 -83,589 -250,775 -167,186 -397,279 -691,279 -181,0 -343,-43 -484,-128 -140,-85 -249,-207 -326,-367 -77,-159 -115,-346 -115,-559 0,-331 83,-589 248,-774 165,-185 395,-277 689,-277 285,0 510,95 677,284 168,189 251,445 251,767zm-1547 0c0,259 52,457 156,592 104,136 256,204 458,204 201,0 354,-68 458,-202 104,-135 156,-333 156,-594 0,-259 -52,-455 -156,-589 -104,-133 -259,-200 -462,-200 -202,0 -353,66 -456,198 -102,132 -154,329 -154,591z"/>
  <path id="1234" class="fil2" d="M10629 4667c0,189 -70,334 -211,437 -141,103 -338,154 -593,154 -269,0 -479,-43 -630,-128l0 -285c98,49 202,89 314,117 112,28 219,42 323,42 161,0 284,-25 371,-77 87,-51 130,-130 130,-235 0,-79 -34,-147 -102,-203 -69,-56 -202,-123 -402,-199 -189,-70 -323,-132 -403,-184 -80,-52 -139,-112 -178,-179 -39,-66 -58,-146 -58,-239 0,-166 67,-296 202,-391 135,-96 319,-144 554,-144 219,0 432,45 641,133l-109 250c-204,-84 -389,-126 -554,-126 -146,0 -256,23 -330,68 -74,46 -111,109 -111,189 0,54 14,101 42,139 28,38 73,75 135,109 61,35 180,85 355,150 241,87 403,176 488,265 85,89 127,200 127,335z"/>
  <path id="12345" class="fil2" d="M12377 5221l-61 -289 -15 0c-101,127 -202,213 -303,259 -101,45 -226,68 -377,68 -201,0 -359,-52 -474,-156 -114,-104 -171,-251 -171,-443 0,-410 328,-625 984,-644l345 -11 0 -126c0,-159 -34,-277 -103,-353 -68,-76 -178,-114 -329,-114 -169,0 -360,52 -574,156l-94 -235c100,-54 209,-97 329,-128 119,-31 238,-47 359,-47 242,0 421,54 538,161 116,107 175,280 175,517l0 1385 -228 0zm-694 -217c191,0 341,-52 451,-157 109,-105 164,-252 164,-441l0 -183 -307 13c-245,9 -421,47 -529,114 -108,67 -163,172 -163,314 0,111 34,196 101,254 67,58 161,87 283,87z"/>
  <path id="123456" class="fil2" d="M14628 5221l0 -1313c0,-166 -38,-289 -113,-371 -75,-82 -193,-122 -353,-122 -212,0 -368,57 -467,172 -99,115 -148,304 -148,568l0 1065 -307 0 0 -2030 250 0 50 278 15 0c63,-101 151,-178 265,-233 113,-55 240,-83 379,-83 245,0 429,59 552,177 124,118 185,307 185,566l0 1325 -307 0z"/>
  <path id="1234567" class="fil2" d="M15320 5166c0,-23 5,-41 16,-52 10,-12 26,-18 45,-18 20,0 36,6 47,18 11,12 17,29 17,52 0,22 -6,40 -17,52 -11,12 -27,18 -47,18 -18,0 -32,-5 -44,-16 -11,-11 -17,-29 -17,-54z"/>
  <path id="12345678" class="fil2" d="M15841 5231c-82,0 -146,-25 -191,-76 -45,-50 -67,-122 -67,-214 0,-95 23,-168 68,-220 46,-52 111,-78 195,-78 27,0 55,3 82,9 27,6 49,13 64,21l-26 73c-19,-8 -40,-14 -62,-19 -22,-5 -42,-8 -59,-8 -115,0 -173,73 -173,220 0,70 14,123 42,160 28,37 70,56 125,56 47,0 96,-10 145,-31l0 76c-38,20 -86,29 -143,29z"/>
  <path id="123456789" class="fil2" d="M16607 4937c0,92 -23,164 -70,216 -47,52 -111,78 -193,78 -51,0 -96,-12 -135,-36 -39,-24 -70,-58 -91,-102 -22,-44 -32,-96 -32,-156 0,-92 23,-164 69,-216 46,-52 110,-77 192,-77 79,0 142,26 189,79 47,53 70,124 70,214zm-431 0c0,72 14,127 43,165 29,38 71,57 128,57 56,0 99,-19 128,-56 29,-38 44,-93 44,-166 0,-72 -14,-127 -44,-164 -29,-37 -72,-56 -129,-56 -56,0 -99,18 -127,55 -29,37 -43,92 -43,165z"/>
  <path id="12345678910" class="fil2" d="M17479 5221l0 -368c0,-45 -10,-79 -29,-102 -19,-22 -49,-34 -90,-34 -53,0 -93,15 -118,46 -26,31 -38,78 -38,142l0 316 -86 0 0 -368c0,-45 -10,-79 -29,-102 -19,-22 -49,-34 -90,-34 -54,0 -93,16 -118,48 -25,32 -37,85 -37,158l0 297 -86 0 0 -566 70 0 14 78 4 0c16,-28 39,-49 68,-65 29,-16 62,-23 99,-23 89,0 146,32 174,96l4 0c17,-30 41,-53 73,-70 32,-17 68,-26 110,-26 64,0 112,17 144,49 32,33 48,86 48,158l0 370 -86 0z"/>
 </g>
</svg>
